<svg width="211" height="390" viewBox="0 0 211 390" fill="none" xmlns="http://www.w3.org/2000/svg">
<g clipPath="url(#clip0_79_112)">
<path d="M140.21 65.0459C93.8865 83.4037 71.0654 135.568 88.8414 182.001L88.8586 182.045C89.078 182.66 89.3188 183.268 89.5805 183.866C90.0557 184.989 90.7524 186.518 91.6918 188.354C97.0684 199.751 104.762 209.901 114.281 218.158C123.801 226.415 134.937 232.596 146.979 236.308C170.138 248.025 180.505 262.633 183.114 267.892L183.134 267.944C183.412 268.493 183.722 269.019 184.062 269.523L184.027 269.537L190.21 285.137L250.403 246.177L250.23 245.741C250.263 244.35 250.073 242.963 249.66 241.58L249.636 241.519C247.753 235.317 244.056 218.278 252.716 194.506C258.981 183.498 262.868 171.298 264.125 158.695C265.382 146.091 263.981 133.365 260.013 121.336C259.509 119.621 258.944 117.924 258.319 116.249L257.929 115.264C238.963 69.1115 186.585 46.6675 140.21 65.0459ZM106.38 175.363C99.5668 157.636 100.024 137.937 107.652 120.545C115.28 103.153 129.462 89.4729 147.118 82.4771C183.871 67.9118 225.459 85.6469 240.571 122.355L240.892 123.166C241.075 123.628 241.441 124.703 242.106 126.89L242.13 127.001L242.174 127.115C245.372 136.775 246.482 147.004 245.433 157.125C244.384 167.246 241.198 177.029 236.087 185.828L235.683 186.513L235.403 187.259C226.184 212.039 228.001 231.508 230.483 242.353L224.975 244.536C220.065 231.002 211.965 205.371 216.24 194.046C221.387 185.149 222.797 174.203 219.366 163.764C219.074 162.771 218.832 162.161 218.659 161.725L218.521 161.377C214.816 152.297 207.678 145.046 198.657 141.2C189.637 137.354 179.463 137.223 170.346 140.837C163.175 143.682 157.069 148.69 152.875 155.165C148.682 161.64 146.61 169.261 146.947 176.968C147.284 184.675 150.014 192.086 154.757 198.17C159.5 204.255 166.021 208.71 173.413 210.918C184.251 216.334 195.984 240.545 201.731 253.748L197.547 255.405C191.426 245.659 178.072 230.843 154.652 219.179L153.926 218.822L153.15 218.595C143.436 215.698 134.445 210.78 126.766 204.164C119.086 197.548 112.893 189.383 108.591 180.205L108.511 180.055L108.428 179.896C107.729 178.551 107.095 177.174 106.53 175.768L106.43 175.515L106.38 175.363ZM173.8 149.552C187.919 143.957 203.949 150.815 209.718 164.865L209.995 165.562C210.098 165.824 210.236 166.172 210.356 166.73C212.822 174.224 211.977 182.525 208.021 189.337L207.584 190.014L207.268 190.745C201.895 205.177 210.597 232.989 216.12 247.944L210.455 250.189C204.148 235.545 191.349 209.356 177.548 202.523L176.818 202.207L176.035 202.013C172.254 200.877 168.759 198.947 165.783 196.353C162.807 193.759 160.419 190.559 158.778 186.968C158.709 186.793 158.622 186.625 158.519 186.466L158.38 186.219L158.07 185.434C152.736 171.211 159.768 155.113 173.8 149.552ZM253.926 255.067L193.733 294.027L197.08 302.473L256.989 262.798L253.926 255.067ZM201.297 313.114L200.606 311.371L260.519 271.705L266.664 287.21C267.58 289.521 267.54 292.102 266.553 294.384C265.567 296.666 263.714 298.463 261.402 299.379L251.676 303.234C251.242 306.44 249.969 309.475 247.986 312.031C246.003 314.588 243.38 316.576 240.383 317.794C237.365 318.96 234.093 319.308 230.897 318.804C227.701 318.3 224.695 316.961 222.182 314.922L213.467 318.376C211.155 319.292 208.574 319.252 206.292 318.266C204.01 317.279 202.213 315.426 201.297 313.114Z" fill="#FAFAFA" fill-opacity="0.4"/>
</g>
<defs>
<clipPath id="clip0_79_112">
<rect width="300" height="300" fill="white" transform="translate(0 110.526) rotate(-21.6183)"/>
</clipPath>
</defs>
</svg>
