<svg width="138" height="109" viewBox="0 0 138 109" fill="none" xmlns="http://www.w3.org/2000/svg">
<g clipPath="url(#clip0_79_86)">
<path d="M43.4449 0.287718C29.2818 8.96399 24.7689 27.399 33.2604 41.6314L33.2686 41.6447C33.3758 41.8342 33.4896 42.02 33.6097 42.2016C33.83 42.5431 34.1461 43.0054 34.5596 43.5547C36.9767 46.9901 40.0834 49.8838 43.6814 52.0512C47.2795 54.2186 51.2899 55.612 55.4567 56.1427C63.7315 58.6669 67.9711 62.8715 69.1283 64.4495L69.1381 64.4654C69.2607 64.6297 69.3924 64.7849 69.5331 64.9308L69.5224 64.9373L72.4444 69.7072L89.9846 53.4723L89.903 53.3391C89.8345 52.8802 89.6928 52.4356 89.478 52.0052L89.4666 51.9866C88.4938 50.0575 86.3057 44.6731 87.791 36.3714C89.2194 32.3984 89.7984 28.1699 89.4908 23.9592C89.1832 19.7484 87.9957 15.649 86.0051 11.9258C85.7417 11.3912 85.4593 10.8663 85.1583 10.352L84.9739 10.0508C76.1076 -4.02155 57.624 -8.39835 43.4449 0.287718ZM38.6405 38.4491C35.39 33.017 34.4142 26.5217 35.9251 20.3742C37.436 14.2267 41.3115 8.92374 46.7097 5.6172C57.9469 -1.26668 72.6178 2.18052 79.6786 13.3716L79.8305 13.6194C79.917 13.7607 80.0985 14.0929 80.4419 14.7731L80.4562 14.8083L80.4774 14.843C82.0795 17.8326 83.0289 21.1282 83.2628 24.5119C83.4966 27.8957 83.0097 31.2906 81.8341 34.4722L81.7404 34.7201L81.6914 34.981C80.0802 43.6457 81.7894 49.9355 83.2246 53.355L81.5405 54.3867C79.1547 50.2229 75.0296 42.2687 75.7863 38.3053C76.9679 35.0894 76.8054 31.4142 75.082 28.1822C74.9291 27.8728 74.8149 27.6863 74.7332 27.553L74.6679 27.4464C72.9324 24.6764 70.1738 22.7033 66.9916 21.9558C63.8094 21.2084 60.4608 21.747 57.6735 23.4547C55.4812 24.7987 53.7621 26.7924 52.7551 29.1585C51.748 31.5247 51.5031 34.1458 52.0544 36.6575C52.6056 39.1693 53.9257 41.4469 55.831 43.1739C57.7364 44.9008 60.1324 45.9913 62.6861 46.2938C66.5551 47.4528 71.792 54.7332 74.4336 58.7404L73.1545 59.5239C70.5873 56.6732 65.3551 52.571 56.9975 50.0791L56.7384 50.0033L56.4707 49.973C53.1152 49.5769 49.8814 48.4758 46.9814 46.7421C44.0814 45.0083 41.5807 42.6809 39.6434 39.9127L39.6086 39.868L39.5723 39.8207C39.2658 39.419 38.9791 39.0028 38.7129 38.5734L38.6656 38.4961L38.6405 38.4491ZM59.3059 26.1194C63.6228 23.4749 69.2787 24.8109 71.9765 29.0952L72.1071 29.3083C72.1561 29.3883 72.2214 29.4949 72.2927 29.6711C73.5307 31.9911 73.7278 34.7655 72.8179 37.2286L72.713 37.4761L72.651 37.7339C71.7114 42.7806 76.1589 51.4167 78.8275 56.0121L77.0954 57.0731C74.187 52.6247 68.487 44.7558 63.5643 43.3004L63.3064 43.2385L63.0383 43.2195C61.7317 43.0626 60.4736 42.6288 59.3481 41.9469C58.2225 41.265 57.2555 40.3508 56.5114 39.2653C56.4786 39.2116 56.4404 39.1613 56.3975 39.1153L56.3379 39.0418L56.1909 38.802C53.6264 34.4362 55.0157 28.7476 59.3059 26.1194ZM91.6497 56.1903L74.1095 72.4252L75.6913 75.0074L93.0976 58.554L91.6497 56.1903ZM77.6845 78.261L77.358 77.7281L94.766 61.2773L97.67 66.0179C98.103 66.7247 98.2374 67.5744 98.0438 68.3803C97.8502 69.1862 97.3444 69.8821 96.6377 70.3151L93.6638 72.1368C93.7046 73.2146 93.4601 74.2839 92.9551 75.2368C92.45 76.1897 91.7023 76.9924 90.7875 77.5636C89.8631 78.1191 88.8084 78.4206 87.73 78.4377C86.6517 78.4548 85.5879 78.1868 84.6464 77.6609L81.9816 79.2933C81.2749 79.7263 80.4251 79.8607 79.6192 79.6671C78.8134 79.4735 78.1174 78.9677 77.6845 78.261Z" fill="#FAFAFA" fill-opacity="0.4"/>
</g>
<defs>
<clipPath id="clip0_79_86">
<rect width="100" height="100" fill="white" transform="translate(0 23.2372) rotate(-31.4915)"/>
</clipPath>
</defs>
</svg>
