<svg width="242" height="338" viewBox="0 0 242 338" fill="none" xmlns="http://www.w3.org/2000/svg">
<path d="M116.245 126.448C72.7861 102.073 17.9097 117.256 -6.91755 160.333L-6.94047 160.374C-7.27973 160.932 -7.59942 161.502 -7.89898 162.082C-8.47065 163.159 -9.21798 164.664 -10.0506 166.551C-15.5052 177.911 -18.5317 190.283 -18.9369 202.877C-19.342 215.472 -17.117 228.013 -12.4038 239.7C-6.89396 265.062 -11.6936 282.32 -14.1302 287.661L-14.1577 287.71C-14.4083 288.272 -14.6216 288.844 -14.7976 289.426L-14.8303 289.407L-23.0395 304.044L45.1556 326.191L45.3849 325.782C46.4859 324.931 47.4425 323.909 48.2548 322.716L48.2869 322.659C51.9128 317.286 62.8059 303.672 86.7169 295.403C99.2111 293.324 111.13 288.647 121.704 281.675C132.279 274.702 141.273 265.59 148.106 254.925C149.119 253.452 150.08 251.944 150.986 250.403L151.504 249.479C175.364 205.655 159.753 150.851 116.245 126.448ZM9.29362 169.758C18.7557 153.292 34.3329 141.225 52.641 136.177C70.9492 131.13 90.5096 133.51 107.073 142.801C141.554 162.141 154.014 205.601 135.055 240.478L134.628 241.239C134.385 241.672 133.781 242.634 132.503 244.529L132.432 244.618L132.372 244.724C126.891 253.298 119.653 260.61 111.136 266.178C102.619 271.746 93.0171 275.443 82.9653 277.024L82.179 277.142L81.424 277.396C56.3784 285.867 42.4136 299.554 35.5623 308.32L30.3946 305.422C37.8023 293.077 52.5867 270.627 64.072 266.804C74.2225 265.188 83.607 259.38 89.5451 250.134C90.1314 249.281 90.4524 248.708 90.6817 248.299L90.8652 247.972C95.5759 239.371 96.7019 229.259 93.9984 219.833C91.295 210.406 84.9805 202.428 76.4273 197.631C69.6975 193.86 61.9599 192.278 54.29 193.107C46.62 193.936 39.3987 197.133 33.6297 202.255C27.8608 207.377 23.8307 214.169 22.0996 221.687C20.3685 229.204 21.0224 237.075 23.9705 244.204C26.6023 256.031 15.2102 280.405 8.58746 293.19L4.66265 290.989C8.36655 280.092 11.4442 260.385 5.72837 234.854L5.54764 234.064L5.23468 233.319C1.35755 223.954 -0.495681 213.874 -0.203437 203.742C0.0887971 193.61 2.5199 183.654 6.93039 174.528L6.99659 174.371L7.06738 174.207C7.67011 172.816 8.33993 171.456 9.07448 170.13L9.20748 169.893L9.29362 169.758ZM71.8412 205.808C85.0874 213.237 89.8727 230.002 82.6067 243.34L82.2398 243.994C82.1022 244.24 81.9188 244.567 81.5619 245.012C77.3007 251.651 70.3252 256.23 62.5438 257.455L61.7421 257.543L60.9763 257.758C46.3869 262.689 30.2892 286.982 22.1657 300.699L16.8508 297.718C24.2385 283.588 36.4931 257.14 33.0939 242.119L32.8785 241.354L32.5354 240.624C31.0326 236.973 30.3261 233.044 30.463 229.098C30.6 225.153 31.5772 221.282 33.3295 217.744C33.4221 217.579 33.4978 217.406 33.5556 217.226L33.6605 216.962L34.0732 216.226C41.7481 203.118 58.6768 198.424 71.8412 205.808ZM40.4777 334.531L-27.7173 312.384L-32.1613 320.307L36.4098 341.784L40.4777 334.531ZM-37.761 330.291L-36.8438 328.655L31.7228 350.14L23.564 364.687C22.3477 366.855 20.3197 368.452 17.9262 369.125C15.5327 369.799 12.9698 369.494 10.8012 368.277L1.67603 363.159C-1.08592 364.844 -4.24386 365.77 -7.47846 365.843C-10.7131 365.917 -13.9097 365.134 -16.745 363.576C-19.5532 361.969 -21.8873 359.649 -23.5113 356.851C-25.1353 354.053 -25.9917 350.875 -25.9938 347.64L-34.1705 343.053C-36.3391 341.837 -37.9357 339.809 -38.609 337.416C-39.2824 335.022 -38.9773 332.459 -37.761 330.291Z" fill="#FAFAFA" fill-opacity="0.4"/>
</svg>
