<svg width="62" height="54" viewBox="0 0 62 54" fill="none" xmlns="http://www.w3.org/2000/svg">
<g opacity="0.7" clipPath="url(#clip0_648_431)">
<path d="M25.4917 7.46884C27.2332 3.48339 30.8121 0.982422 34.8493 0.982422C35.977 0.982422 37.1067 1.17421 38.2172 1.55972C41.5275 2.67595 43.0964 4.79333 43.8233 6.35261C45.5072 9.95063 44.5501 14.2238 43.2862 17.8793C43.7849 17.9177 44.2836 17.9177 44.7803 17.9177C49.9664 17.9177 54.1762 22.1525 54.1762 27.3673C54.1762 28.2725 54.0419 29.1778 53.7926 30.0236C55.3525 31.672 56.222 33.8551 56.2226 36.1245C56.2226 38.029 55.6281 39.8587 54.5579 41.3413C55.0942 42.5391 55.3682 43.8378 55.3615 45.1503C55.3599 47.5759 54.4204 49.9069 52.7397 51.6559C52.7972 52.0778 52.8356 52.5017 52.8356 52.9255C52.8356 58.1231 48.6833 62.3368 43.5931 62.3368H33.8731C33.0675 62.3381 32.2639 62.3413 31.4622 62.3464C30.6567 62.3515 29.8531 62.3547 29.0514 62.356H28.8596C26.8688 62.356 21.7019 62.0683 16.7479 59.3352C12.0011 56.7173 6.35663 51.232 6.35663 39.9354C6.35663 27.9446 13.7425 23.5372 16.8995 21.6711C17.2639 21.4601 17.6474 21.2299 17.8201 21.1149C19.6939 19.7474 21.4737 17.7451 22.0472 16.6864C22.7568 15.34 23.3686 13.4911 23.9612 11.6825L24.1204 11.203C24.5481 9.92953 24.9835 8.6311 25.4917 7.46884ZM36.9724 5.15774C36.2837 4.9173 35.5596 4.79412 34.8301 4.79333C32.3617 4.79333 30.16 6.35261 29.0131 9.00701C28.5106 10.1597 28.0637 11.5157 27.6034 12.9081C26.957 14.8605 26.2877 16.8858 25.4169 18.5142C24.5155 20.1693 22.2965 22.5955 20.0564 24.2296C19.7859 24.4194 19.4234 24.6362 19.0111 24.8855L18.8519 24.9814C15.8484 26.7516 10.1829 30.1214 10.1829 39.9163C10.1829 57.8719 26.351 58.4875 28.8404 58.4875H28.9939C30.112 58.4741 31.2187 58.4702 32.3311 58.4683C31.2378 58.2785 29.1837 56.9628 29.4983 53.1423C29.5111 52.9696 29.5303 52.8111 29.5558 52.6666C29.7495 50.7391 30.9386 49.5883 31.5601 49.2374C30.3096 48.3359 29.5271 47.0126 29.5271 45.2174C29.5271 42.843 31.5601 40.858 31.5601 40.858C31.5601 40.858 29.5271 39.0551 29.5271 36.5867C29.5271 34.3735 30.4841 32.5879 31.5601 32.1065C30.4841 31.3547 29.5865 30.0025 29.5865 27.5955C29.5865 22.6204 33.8673 20.388 38.3437 20.1501L38.6487 19.3504C40.5724 14.2966 43.2421 7.28663 36.9724 5.15774ZM40.9502 21.6787C38.4895 21.6787 37.3886 21.4141 35.44 22.6626C35.1178 22.9081 34.8416 23.1996 34.6057 23.5199C34.4715 23.7175 34.3621 23.9208 34.2509 24.1202L34.1914 24.2296C34.047 24.5748 33.8897 24.9341 33.7196 25.3074C33.5105 25.9615 33.3975 26.6424 33.384 27.3289C33.384 28.6504 33.9172 30.3592 34.9951 31.5062H44.8954C45.1494 31.5072 45.3926 31.6089 45.5717 31.7891C45.7507 31.9692 45.851 32.213 45.8505 32.467C45.851 32.593 45.8267 32.7178 45.779 32.8343C45.7312 32.9509 45.661 33.0569 45.5723 33.1463C45.4836 33.2357 45.3782 33.3067 45.2621 33.3554C45.1459 33.404 45.0213 33.4293 44.8954 33.4298H34.1416C33.6046 34.4272 33.384 35.482 33.384 36.1706C33.384 37.6147 33.8673 39.1088 34.8493 40.1656H44.8954C45.0213 40.1661 45.1459 40.1914 45.2621 40.2401C45.3782 40.2887 45.4836 40.3598 45.5723 40.4492C45.661 40.5386 45.7312 40.6446 45.779 40.7611C45.8267 40.8777 45.851 41.0025 45.8505 41.1284C45.851 41.2543 45.8267 41.3791 45.779 41.4957C45.7312 41.6122 45.661 41.7182 45.5723 41.8076C45.4836 41.897 45.3782 41.9681 45.2621 42.0167C45.1459 42.0654 45.0213 42.0907 44.8954 42.0912H34.4293C33.6813 43.217 33.384 44.5116 33.384 45.3133C33.384 46.5964 33.7657 47.9198 34.5405 48.9382H44.8954C45.0213 48.9387 45.1459 48.964 45.2621 49.0126C45.3782 49.0613 45.4836 49.1323 45.5723 49.2218C45.661 49.3112 45.7312 49.4172 45.779 49.5337C45.8267 49.6502 45.851 49.775 45.8505 49.901C45.851 50.0269 45.8267 50.1517 45.779 50.2682C45.7312 50.3848 45.661 50.4908 45.5723 50.5802C45.4836 50.6696 45.3782 50.7406 45.2621 50.7893C45.1459 50.838 45.0213 50.8633 44.8954 50.8638H34.2778C33.641 51.8419 33.384 52.9505 33.384 53.6409C33.384 54.2125 33.4703 54.7917 33.6468 55.3421L33.6813 55.4092C33.9824 56.4564 35.1715 58.4741 39.3967 58.4741C39.545 58.4741 39.6805 58.4766 39.8033 58.4818L43.5739 58.4875C46.5601 58.4875 48.9901 55.9271 48.9901 52.9255C48.9901 51.9244 48.7216 50.9827 48.2421 50.1733C49.218 49.7408 50.047 49.0339 50.6283 48.1386C51.2095 47.2434 51.518 46.1985 51.516 45.1311C51.516 43.3417 50.6722 41.7632 49.3526 40.7621C50.3009 40.3393 51.0974 39.6368 51.6353 38.7488C52.1733 37.8607 52.427 36.8295 52.3625 35.7932C52.2981 34.7569 51.9185 33.7651 51.2746 32.9506C50.6308 32.1361 49.7534 31.5377 48.76 31.2357C49.7694 30.186 50.3319 28.7853 50.3288 27.3289C50.3314 26.5955 50.1893 25.8688 49.9108 25.1903C49.6323 24.5118 49.2228 23.8949 48.7057 23.3748C48.1886 22.8547 47.5741 22.4416 46.8972 22.1591C46.2204 21.8766 45.4945 21.7304 44.7611 21.7286C44.109 21.7286 41.6215 21.7037 40.9502 21.6787Z" fill="#FAFAFA"/>
</g>
<defs>
<clipPath id="clip0_648_431">
<rect width="61.3735" height="61.3735" fill="white" transform="translate(0.602905 0.982422)"/>
</clipPath>
</defs>
</svg>
