<svg width="410" height="322" viewBox="0 0 410 322" fill="none" xmlns="http://www.w3.org/2000/svg">
<g clipPath="url(#clip0_79_102)">
<path fillRule="evenodd" clipRule="evenodd" d="M268.139 79.3986C219.226 55.0139 179.082 67.4729 148.949 114.575L196.575 142.136C206.863 125.734 223.457 118.623 241.93 126.849C260.064 134.923 273.917 148.372 272.067 162.893C270.068 178.579 249.679 186.353 240.457 189.232C223.377 194.583 201.544 193.061 185.598 200.27C169.97 207.333 159.245 222.319 147.336 241.363L189.311 265.654C197.088 253.572 204.802 242.151 214.922 237.701C231.375 230.477 248.506 232.543 265.745 229.294C282.216 226.185 300.383 221.464 312.57 204.936C349.06 155.479 320.407 105.444 268.139 79.3986Z" fill="#F27933" fill-opacity="0.4"/>
<path d="M128.499 323.186C143.135 331.656 161.762 326.838 170.104 312.423C178.445 298.009 173.342 279.458 158.706 270.988C144.07 262.518 125.443 267.336 117.101 281.751C108.76 296.165 113.863 314.716 128.499 323.186Z" fill="#F27933" fill-opacity="0.4"/>
</g>
<defs>
<clipPath id="clip0_79_102">
<rect width="300" height="300" fill="white" transform="translate(150.263) rotate(30.0581)"/>
</clipPath>
</defs>
</svg>
