<svg width="300" height="190" viewBox="0 0 300 190" fill="none" xmlns="http://www.w3.org/2000/svg">
<path fillRule="evenodd" clipRule="evenodd" d="M141.792 -100.32C87.2438 -96.9266 58.7391 -66.0359 56.25 -10.175H111.277C111.966 -29.525 122.766 -43.9906 142.875 -46.1234C162.614 -48.2188 181.341 -43.5172 187.012 -30.0219C193.139 -15.4438 179.386 1.49686 172.847 8.6078C160.744 21.7937 141.084 31.4125 130.894 45.6391C120.905 59.5797 119.128 77.9219 118.359 100.37H166.856C167.536 86.0172 168.492 72.2687 175.022 63.3484C185.644 48.8547 201.506 42.0625 214.8 30.6156C227.498 19.675 240.858 6.48905 243.127 -13.9203C249.938 -75.0031 200.077 -103.958 141.792 -100.32Z" fill="#F27933" fill-opacity="0.4"/>
<path d="M143.039 180.625C159.949 180.625 173.658 167.124 173.658 150.47C173.658 133.816 159.949 120.316 143.039 120.316C126.129 120.316 112.42 133.816 112.42 150.47C112.42 167.124 126.129 180.625 143.039 180.625Z" fill="#F27933" fill-opacity="0.4"/>
</svg>
