<svg width="43" height="34" viewBox="0 0 43 34" fill="none" xmlns="http://www.w3.org/2000/svg">
<g opacity="0.7">
<path d="M6.17545 12.7939C14.0869 12.7939 21.9983 4.88242 21.9983 -3.02901C21.9983 4.88242 29.9098 12.7939 37.8212 12.7939C29.9098 12.7939 21.9983 20.7053 21.9983 28.6167C21.9983 20.7053 14.0869 12.7939 6.17545 12.7939ZM4.41736 25.9796C5.88185 25.9796 8.8126 23.0488 8.8126 21.5843C8.8126 23.0488 11.7433 25.9796 13.2078 25.9796C11.7433 25.9796 8.8126 28.9103 8.8126 30.3748C8.8126 28.9103 5.88185 25.9796 4.41736 25.9796ZM29.0307 0.487179C30.7888 0.487179 34.305 -3.02901 34.305 -4.78711C34.305 -3.02901 37.8212 0.487179 39.5793 0.487179C37.8212 0.487179 34.305 4.00337 34.305 5.76147C34.305 4.00337 30.7888 0.487179 29.0307 0.487179Z" stroke="#FAFAFA" stroke-width="3.692" stroke-linecap="round" stroke-linejoin="round"/>
</g>
</svg>
